<svg width="20" height="20" viewBox="0 0 20 20" fill="none" xmlns="http://www.w3.org/2000/svg">
<path d="M16.5455 1.99963H3.45455C2.65091 1.99963 2 2.65054 2 3.45418V16.5451C2 17.3487 2.65091 17.9996 3.45455 17.9996H16.5455C17.3491 17.9996 18 17.3487 18 16.5451V3.45418C18 2.65054 17.3484 1.99963 16.5455 1.99963ZM15.592 8.88982C15.4975 8.89854 15.4022 8.90436 15.3062 8.90436C14.2189 8.90436 13.2633 8.34582 12.7069 7.5C12.7069 9.71745 12.7069 12.2411 12.7069 12.2833C12.7069 14.236 11.1236 15.8185 9.17164 15.8185C7.21964 15.8178 5.63636 14.2345 5.63636 12.2825C5.63636 10.3298 7.21964 8.74727 9.17164 8.74727C9.24582 8.74727 9.31782 8.75382 9.38982 8.75818V10.5007C9.31709 10.492 9.24655 10.4789 9.17164 10.4789C8.17527 10.4789 7.36727 11.2869 7.36727 12.2833C7.36727 13.2796 8.17455 14.0876 9.17164 14.0876C10.1687 14.0876 11.0487 13.3022 11.0487 12.3058C11.0487 12.2658 11.0662 4.18218 11.0662 4.18218H12.7309C12.8873 5.67091 14.0895 6.84618 15.592 6.95382V8.88982Z" fill="#3F4D2D"/>
</svg>
