<svg width="64" height="17" viewBox="0 0 64 17" fill="none" xmlns="http://www.w3.org/2000/svg">
<rect width="64" height="16.7164" rx="4" fill="#DB8152"/>
<path d="M56.6787 9.19695C56.6787 9.39564 56.6672 9.60579 56.6443 9.8274H51.6236C51.6619 10.4464 51.872 10.9316 52.2541 11.2832C52.6438 11.627 53.1138 11.799 53.664 11.799C54.1149 11.799 54.4893 11.6958 54.7873 11.4895C55.093 11.2755 55.307 10.9928 55.4293 10.6412H56.5526C56.3845 11.2449 56.0482 11.7378 55.5439 12.1199C55.0395 12.4944 54.4129 12.6816 53.664 12.6816C53.0679 12.6816 52.533 12.5479 52.0592 12.2804C51.5931 12.0129 51.2263 11.6347 50.9588 11.1456C50.6914 10.6489 50.5576 10.0758 50.5576 9.4262C50.5576 8.77665 50.6875 8.20734 50.9473 7.71826C51.2072 7.22919 51.5702 6.85474 52.0363 6.59492C52.5101 6.32746 53.0527 6.19373 53.664 6.19373C54.2601 6.19373 54.7873 6.32364 55.2459 6.58346C55.7044 6.84328 56.0559 7.20244 56.3004 7.66095C56.5526 8.11182 56.6787 8.62382 56.6787 9.19695ZM55.6012 8.97916C55.6012 8.58179 55.5133 8.24173 55.3376 7.95898C55.1618 7.66859 54.9211 7.4508 54.6154 7.30561C54.3174 7.15277 53.985 7.07635 53.6182 7.07635C53.0909 7.07635 52.64 7.24447 52.2656 7.58071C51.8988 7.91695 51.6886 8.3831 51.6351 8.97916H55.6012Z" fill="#FBFBF9"/>
<path d="M49.5705 9.19695C49.5705 9.39564 49.559 9.60579 49.5361 9.8274H44.5154C44.5536 10.4464 44.7638 10.9316 45.1459 11.2832C45.5356 11.627 46.0056 11.799 46.5558 11.799C47.0067 11.799 47.3811 11.6958 47.6791 11.4895C47.9848 11.2755 48.1988 10.9928 48.321 10.6412H49.4444C49.2763 11.2449 48.94 11.7378 48.4357 12.1199C47.9313 12.4944 47.3047 12.6816 46.5558 12.6816C45.9597 12.6816 45.4248 12.5479 44.951 12.2804C44.4849 12.0129 44.1181 11.6347 43.8506 11.1456C43.5831 10.6489 43.4494 10.0758 43.4494 9.4262C43.4494 8.77665 43.5793 8.20734 43.8391 7.71826C44.099 7.22919 44.4619 6.85474 44.9281 6.59492C45.4019 6.32746 45.9444 6.19373 46.5558 6.19373C47.1519 6.19373 47.6791 6.32364 48.1376 6.58346C48.5961 6.84328 48.9477 7.20244 49.1922 7.66095C49.4444 8.11182 49.5705 8.62382 49.5705 9.19695ZM48.493 8.97916C48.493 8.58179 48.4051 8.24173 48.2293 7.95898C48.0536 7.66859 47.8129 7.4508 47.5072 7.30561C47.2092 7.15277 46.8767 7.07635 46.5099 7.07635C45.9827 7.07635 45.5318 7.24447 45.1573 7.58071C44.7905 7.91695 44.5804 8.3831 44.5269 8.97916H48.493Z" fill="#FBFBF9"/>
<path d="M42.6229 7.15669H41.3047V12.5785H40.2616V7.15669H39.4478V6.29699H40.2616V5.84994C40.2616 5.1469 40.4412 4.6349 40.8004 4.31394C41.1672 3.98534 41.7518 3.82104 42.5541 3.82104V4.69221C42.0956 4.69221 41.7709 4.78391 41.5798 4.96731C41.3964 5.14308 41.3047 5.43728 41.3047 5.84994V6.29699H42.6229V7.15669Z" fill="#FBFBF9"/>
<path d="M38.8505 7.15669H37.5323V12.5785H36.4892V7.15669H35.6754V6.29699H36.4892V5.84994C36.4892 5.1469 36.6688 4.6349 37.0279 4.31394C37.3948 3.98534 37.9794 3.82104 38.7817 3.82104V4.69221C38.3232 4.69221 37.9985 4.78391 37.8074 4.96731C37.624 5.14308 37.5323 5.43728 37.5323 5.84994V6.29699H38.8505V7.15669Z" fill="#FBFBF9"/>
<path d="M31.7018 12.6816C31.1134 12.6816 30.5785 12.5479 30.097 12.2804C29.6233 12.0129 29.2488 11.6347 28.9737 11.1456C28.7062 10.6489 28.5725 10.0758 28.5725 9.4262C28.5725 8.78429 28.7101 8.2188 28.9852 7.72973C29.2679 7.23301 29.65 6.85474 30.1314 6.59492C30.6129 6.32746 31.1516 6.19373 31.7477 6.19373C32.3437 6.19373 32.8825 6.32746 33.3639 6.59492C33.8453 6.85474 34.2236 7.22919 34.4987 7.71826C34.7815 8.20734 34.9228 8.77665 34.9228 9.4262C34.9228 10.0758 34.7776 10.6489 34.4873 11.1456C34.2045 11.6347 33.8186 12.0129 33.3295 12.2804C32.8404 12.5479 32.2979 12.6816 31.7018 12.6816ZM31.7018 11.7646C32.0763 11.7646 32.4278 11.6767 32.7564 11.5009C33.085 11.3252 33.3486 11.0615 33.5473 10.71C33.7536 10.3585 33.8568 9.93056 33.8568 9.4262C33.8568 8.92185 33.7575 8.49391 33.5588 8.14238C33.3601 7.79086 33.1003 7.53104 32.7793 7.36292C32.4584 7.18716 32.1107 7.09928 31.7362 7.09928C31.3541 7.09928 31.0026 7.18716 30.6816 7.36292C30.3683 7.53104 30.1162 7.79086 29.9251 8.14238C29.7341 8.49391 29.6385 8.92185 29.6385 9.4262C29.6385 9.9382 29.7302 10.37 29.9136 10.7215C30.1047 11.073 30.3569 11.3367 30.6702 11.5124C30.9835 11.6805 31.3274 11.7646 31.7018 11.7646Z" fill="#FBFBF9"/>
<path d="M19.718 8.57802C19.718 7.79856 19.8938 7.09933 20.2453 6.48035C20.5968 5.85372 21.0744 5.36465 21.6781 5.01312C22.2895 4.6616 22.9658 4.48584 23.707 4.48584C24.5782 4.48584 25.3386 4.69599 25.9881 5.11629C26.6377 5.53659 27.1115 6.13265 27.4095 6.90447H26.16C25.9384 6.42303 25.6175 6.05241 25.1972 5.79259C24.7845 5.53277 24.2878 5.40285 23.707 5.40285C23.1492 5.40285 22.6486 5.53277 22.2054 5.79259C21.7622 6.05241 21.4145 6.42303 21.1623 6.90447C20.9101 7.37826 20.784 7.93611 20.784 8.57802C20.784 9.21229 20.9101 9.77014 21.1623 10.2516C21.4145 10.7254 21.7622 11.0922 22.2054 11.352C22.6486 11.6118 23.1492 11.7417 23.707 11.7417C24.2878 11.7417 24.7845 11.6156 25.1972 11.3635C25.6175 11.1036 25.9384 10.733 26.16 10.2516H27.4095C27.1115 11.0158 26.6377 11.608 25.9881 12.0283C25.3386 12.4409 24.5782 12.6473 23.707 12.6473C22.9658 12.6473 22.2895 12.4753 21.6781 12.1315C21.0744 11.7799 20.5968 11.2947 20.2453 10.6757C19.8938 10.0567 19.718 9.35748 19.718 8.57802Z" fill="#FBFBF9"/>
<path d="M14.7104 12.5784L13.6673 11.5239C13.2776 11.9289 12.8611 12.2307 12.4179 12.4294C11.9747 12.6205 11.4741 12.716 10.9163 12.716C10.3661 12.716 9.877 12.6166 9.44906 12.418C9.02876 12.2193 8.70016 11.9365 8.46327 11.5697C8.23401 11.2029 8.11938 10.775 8.11938 10.2859C8.11938 9.72805 8.27604 9.23897 8.58935 8.81868C8.91031 8.39074 9.38028 8.0545 9.99927 7.80996C9.75473 7.51957 9.57897 7.25211 9.47198 7.00757C9.365 6.76303 9.3115 6.49557 9.3115 6.20518C9.3115 5.86894 9.39556 5.56709 9.56368 5.29963C9.73944 5.02453 9.9878 4.81056 10.3088 4.65772C10.6297 4.50488 11.0003 4.42847 11.4206 4.42847C11.8333 4.42847 12.1925 4.50871 12.4981 4.66918C12.8038 4.82966 13.0331 5.05509 13.1859 5.34548C13.3387 5.62823 13.4075 5.94536 13.3922 6.29688H12.3491C12.3568 5.98357 12.2689 5.73903 12.0855 5.56327C11.9021 5.37987 11.6652 5.28817 11.3748 5.28817C11.0691 5.28817 10.8208 5.37605 10.6297 5.55181C10.4463 5.71993 10.3546 5.93772 10.3546 6.20518C10.3546 6.43444 10.4157 6.65605 10.538 6.87002C10.6679 7.08399 10.8819 7.34763 11.1799 7.66094L13.5642 10.0566L13.7705 9.73569L14.55 8.42894H15.6733L14.7334 10.0566C14.6034 10.2859 14.4506 10.5266 14.2748 10.7788L16.0745 12.5784H14.7104ZM10.9163 11.8219C11.3289 11.8219 11.6996 11.7417 12.0282 11.5812C12.3644 11.4207 12.6815 11.1723 12.9796 10.8361L10.6297 8.47479C9.65156 8.84924 9.16249 9.44148 9.16249 10.2515C9.16249 10.7024 9.32297 11.0768 9.64392 11.3749C9.97252 11.6729 10.3966 11.8219 10.9163 11.8219Z" fill="#FBFBF9"/>
</svg>
