<svg width="1086" height="833" viewBox="0 0 1086 833" fill="none" xmlns="http://www.w3.org/2000/svg">
<path fill-rule="evenodd" clip-rule="evenodd" d="M192.837 326.875L94.4584 386.153C-0.578455 441.047 -26.1715 528.962 28.1345 623.065C68.4705 692.961 61.4103 680.726 105.265 756.719C147.241 829.458 241.905 854.32 315.37 811.885C342.85 796.012 372.833 773.788 407.912 753.526C437.975 736.161 472.334 721.221 505.723 701.935C541.656 681.179 576.805 655.971 614.132 634.411C651.794 612.657 691.653 594.54 728.144 573.462C728.144 573.462 808.869 522.701 883.301 478.808C921.728 456.148 969.537 434.676 994.135 427.503C1083.5 401.457 1104.52 341.854 1069.53 281.229C1054.06 254.418 1026.09 254.073 1011.38 228.576C996.663 203.077 1011.89 181.341 986.751 137.78C961.612 94.2182 907.43 103.958 882.291 60.3959C867.396 34.5841 852.641 -6.65254 788.925 2.14963C736.431 9.4054 748.127 57.8347 655.145 54.2595C650.537 54.0859 645.891 54.0634 641.192 54.2048C512.512 58.0989 536.029 141.05 275.128 284.452C246.387 297.624 218.831 311.861 192.837 326.875ZM533.684 206.23C529.969 206.789 526.34 204.879 524.768 201.511C523.197 198.145 524.046 194.123 526.856 191.607C531.824 187.123 536.567 182.806 541.126 178.644C577.137 145.744 592.788 123.84 642.674 122.325C703.062 120.505 758.457 153.908 803.121 202.926C804.069 203.968 805.148 205.238 806.312 206.654C808.76 209.522 809.003 213.677 806.871 216.852C804.739 220.026 800.773 221.438 797.133 220.325C717.396 197.372 622.421 193.692 533.684 206.23ZM396.361 291.392C473.659 265.816 555.333 249.84 633.888 249.15C725.895 248.332 813.771 268.861 882.932 322.252C888.771 326.746 894.455 331.487 900.022 336.454L900.024 336.458C911.773 346.987 917.723 362.492 916.064 378.247C914.403 394.001 905.32 408.139 891.581 416.355C820.766 458.704 703.648 528.739 703.648 528.739C677.227 544 648.996 557.669 621.149 572.347C621.612 566.967 621.928 561.592 622.061 556.241C623.383 503.584 608.127 452.68 566.196 410.928C556.209 401.005 541.539 395.246 531.468 405.268C521.396 415.29 526.106 431.178 536.075 441.112C573.123 477.964 573.604 528.466 568.035 575.01C567.585 578.78 567.391 583.423 566.99 588.051C566.395 594.705 565.365 601.335 562.532 605.311C561.888 606.041 561.159 606.666 560.342 607.182C533.745 624.284 507.74 641.898 481.338 657.148C460.268 669.318 438.838 679.791 418.336 690.198C419.173 684.436 419.888 678.592 420.486 672.673C421.395 663.732 422.035 654.622 422.361 645.399C424.923 574.715 404.455 500.011 343.572 439.414C333.603 429.481 318.119 426.645 308.047 436.667C297.995 446.678 302.704 462.566 312.673 472.5C362.421 522.001 370.206 585.504 368.108 643.255C367.44 661.975 366.041 688.054 363.167 705.781C361.895 713.622 360.326 719.834 358.414 723.046C357.718 723.815 356.936 724.476 356.066 725.03C332.049 740.678 310.29 755.947 289.889 767.731C240.931 796.01 177.834 779.442 149.857 730.962C104.065 651.612 118.519 676.658 72.7266 597.308C33.4638 529.272 51.2302 469.994 119.939 430.307L218.318 371.029C271.903 340.078 332.646 312.473 396.361 291.392Z" fill="#FBFBF9"/>
</svg>
