<svg width="12" height="14" viewBox="0 0 12 14" fill="none" xmlns="http://www.w3.org/2000/svg">
<path d="M4.35803 1.60419H7.64198V0.729187H4.35803V1.60419ZM10.3525 3.55716L10.3734 3.61978L11.2034 3.34282L11.1825 3.2802L10.3525 3.55716ZM1.62661 3.61978L1.6475 3.55716L0.817495 3.2802L0.7966 3.34282L1.62661 3.61978ZM5.3916 13.2709H6.60837V12.3959H5.3916V13.2709ZM9.79168 4.42715H2.20833V5.30215H9.79168V4.42715ZM1.77544 4.92803L2.64998 10.9014L3.51575 10.7747L2.64121 4.80127L1.77544 4.92803ZM9.34998 10.9014L10.2246 4.92803L9.35879 4.80127L8.48426 10.7747L9.34998 10.9014ZM6.60837 13.2709C7.0779 13.2709 7.47095 13.2717 7.78612 13.2319C8.11355 13.1906 8.41128 13.1002 8.66562 12.8804L8.09348 12.2183C8.01928 12.2825 7.9123 12.3341 7.67669 12.3638C7.42889 12.395 7.10065 12.3959 6.60837 12.3959V13.2709ZM8.48426 10.7747C8.41292 11.2617 8.36456 11.5864 8.29777 11.827C8.23424 12.0558 8.16768 12.1542 8.09348 12.2183L8.66562 12.8804C8.92001 12.6606 9.0526 12.3791 9.14086 12.0611C9.22585 11.7549 9.28202 11.3659 9.34998 10.9014L8.48426 10.7747ZM0.7966 3.34282C0.707158 3.61086 0.626944 3.84891 0.586233 4.04604C0.544478 4.24823 0.526803 4.48195 0.634393 4.71271L1.42743 4.34294C1.4368 4.36303 1.41649 4.35212 1.44315 4.22302C1.47086 4.08887 1.53011 3.90898 1.62661 3.61978L0.7966 3.34282ZM2.20833 4.42715C1.90345 4.42715 1.71407 4.42642 1.57805 4.41023C1.44714 4.39466 1.44321 4.37194 1.4593 4.38719L0.857535 5.0224C1.04237 5.1975 1.26967 5.25472 1.47467 5.27911C1.67456 5.30289 1.92575 5.30215 2.20833 5.30215V4.42715ZM0.634393 4.71271C0.688643 4.82905 0.764342 4.93412 0.857535 5.0224L1.4593 4.38719C1.44599 4.37458 1.43518 4.35957 1.42743 4.34294L0.634393 4.71271ZM10.3734 3.61978C10.4699 3.90898 10.5291 4.08887 10.5568 4.22302C10.5835 4.35212 10.5632 4.36304 10.5725 4.34294L11.3656 4.71271C11.4732 4.48196 11.4555 4.24823 11.4138 4.04604C11.373 3.84891 11.2928 3.61087 11.2034 3.34282L10.3734 3.61978ZM9.79168 5.30215C10.0742 5.30215 10.3254 5.30289 10.5253 5.27911C10.7303 5.25472 10.9576 5.1975 11.1424 5.0224L10.5407 4.38718C10.5568 4.37194 10.5529 4.39466 10.4219 4.41023C10.2859 4.42642 10.0965 4.42715 9.79168 4.42715V5.30215ZM10.5725 4.34294C10.5648 4.35957 10.554 4.37458 10.5407 4.38718L11.1424 5.0224C11.2357 4.93412 11.3113 4.82905 11.3656 4.71271L10.5725 4.34294ZM7.64198 1.60419C8.18682 1.60419 8.56307 1.60471 8.85672 1.63437C9.14121 1.6631 9.30857 1.71625 9.4425 1.79858L9.90076 1.05317C9.61306 0.876316 9.30162 0.799864 8.94468 0.763802C8.5969 0.728668 8.16914 0.729187 7.64198 0.729187V1.60419ZM11.1825 3.2802C11.0156 2.78012 10.8807 2.37418 10.7373 2.05542C10.5901 1.72823 10.419 1.45701 10.1602 1.24011L9.59819 1.91073C9.71865 2.01171 9.82202 2.15367 9.93932 2.41441C10.0604 2.68359 10.18 3.04033 10.3525 3.55716L11.1825 3.2802ZM9.4425 1.79858C9.49704 1.83211 9.54907 1.8696 9.59819 1.91073L10.1602 1.24011C10.0784 1.17155 9.99165 1.10907 9.90076 1.05317L9.4425 1.79858ZM5.3916 12.3959C4.89932 12.3959 4.57111 12.395 4.32331 12.3638C4.08771 12.3341 3.9807 12.2825 3.9065 12.2183L3.33435 12.8804C3.58872 13.1002 3.88643 13.1906 4.21384 13.2319C4.52904 13.2717 4.92207 13.2709 5.3916 13.2709V12.3959ZM2.64998 10.9014C2.71799 11.3659 2.77413 11.7549 2.85912 12.0611C2.9474 12.3791 3.07997 12.6606 3.33435 12.8804L3.9065 12.2183C3.83229 12.1542 3.76575 12.0558 3.70222 11.827C3.63541 11.5864 3.58706 11.2617 3.51575 10.7747L2.64998 10.9014ZM4.35803 0.729187C3.83084 0.729187 3.40307 0.728668 3.05531 0.763802C2.69835 0.799864 2.38692 0.876316 2.09924 1.05317L2.55749 1.79858C2.69141 1.71625 2.8588 1.6631 3.14326 1.63437C3.43692 1.60471 3.81318 1.60419 4.35803 1.60419V0.729187ZM1.6475 3.55716C1.81997 3.04032 1.93955 2.68358 2.06065 2.41441C2.17795 2.15367 2.28134 2.01171 2.40183 1.91073L1.8398 1.24011C1.58098 1.45701 1.40988 1.72823 1.26268 2.05542C1.11928 2.37417 0.98437 2.78012 0.817495 3.2802L1.6475 3.55716ZM2.09924 1.05317C2.00832 1.10907 1.92161 1.17155 1.8398 1.24011L2.40183 1.91073C2.45091 1.8696 2.50294 1.83211 2.55749 1.79858L2.09924 1.05317Z" fill="#FBFBF9"/>
<path fill-rule="evenodd" clip-rule="evenodd" d="M2.573 7C2.573 6.87919 2.67094 6.78125 2.79175 6.78125H9.20841C9.32923 6.78125 9.42716 6.87919 9.42716 7C9.42716 7.12081 9.32923 7.21875 9.20841 7.21875H2.79175C2.67094 7.21875 2.573 7.12081 2.573 7Z" fill="#FBFBF9"/>
<path fill-rule="evenodd" clip-rule="evenodd" d="M2.8645 9.91669C2.8645 9.79587 2.96244 9.69794 3.08325 9.69794H8.91659C9.0374 9.69794 9.13534 9.79587 9.13534 9.91669C9.13534 10.0375 9.0374 10.1354 8.91659 10.1354H3.08325C2.96244 10.1354 2.8645 10.0375 2.8645 9.91669Z" fill="#FBFBF9"/>
</svg>
