<svg width="200" height="311" viewBox="0 0 200 311" fill="none" xmlns="http://www.w3.org/2000/svg">
<path d="M33.7883 15.0094H27.535C26.1229 15.0094 25.7195 15.4129 25.7195 16.8249V72.8026C25.7195 75.7275 24.9126 76.5344 21.9876 76.5344H15.5325C12.6076 76.5344 11.8007 75.7275 11.8007 72.8026V16.8249C11.8007 15.4129 11.3973 15.0094 9.98521 15.0094H3.73185C0.806885 15.0094 0 14.2025 0 11.2776V4.62076C0 1.6958 0.806885 0.888916 3.73185 0.888916H33.7883C36.7133 0.888916 37.5202 1.6958 37.5202 4.62076V11.2776C37.5202 14.2025 36.7133 15.0094 33.7883 15.0094Z" fill="#FBFBF9"/>
<path d="M66.4956 72.8026V45.5702C66.4956 44.1581 66.0921 43.7547 64.6801 43.7547H56.4095C54.9974 43.7547 54.594 44.1581 54.594 45.5702V72.8026C54.594 75.7275 53.7871 76.5344 50.8622 76.5344H44.4071C41.4821 76.5344 40.6752 75.7275 40.6752 72.8026V4.62076C40.6752 1.6958 41.4821 0.888916 44.4071 0.888916H50.8622C53.7871 0.888916 54.594 1.6958 54.594 4.62076V27.8187C54.594 29.1299 54.9974 29.6342 56.4095 29.6342H64.6801C66.0921 29.6342 66.4956 29.1299 66.4956 27.8187V4.62076C66.4956 1.6958 67.3024 0.888916 70.2274 0.888916H76.6825C79.6074 0.888916 80.4143 1.6958 80.4143 4.62076V72.8026C80.4143 75.7275 79.6074 76.5344 76.6825 76.5344H70.2274C67.3024 76.5344 66.4956 75.7275 66.4956 72.8026Z" fill="#FBFBF9"/>
<path d="M103.547 16.8249V28.1213C103.547 29.4325 103.95 29.9368 105.362 29.9368H117.869C120.794 29.9368 121.601 30.7437 121.601 33.6686V40.3254C121.601 43.2504 120.794 44.0573 118.071 44.0573H105.362C103.95 44.0573 103.547 44.4607 103.547 45.8728V60.5984C103.547 61.9096 103.95 62.4139 105.362 62.4139H119.079C122.004 62.4139 122.811 63.2208 122.811 66.1458V72.8026C122.811 75.7275 122.004 76.5344 119.079 76.5344H93.36C90.435 76.5344 89.6281 75.7275 89.6281 72.8026V4.62076C89.6281 1.6958 90.435 0.888916 93.36 0.888916H119.079C122.004 0.888916 122.811 1.6958 122.811 4.62076V11.2776C122.811 14.2025 122.004 15.0094 119.079 15.0094H105.362C103.95 15.0094 103.547 15.4129 103.547 16.8249Z" fill="#FBFBF9"/>
<path d="M29.4513 91.6635H35.9064C38.8314 91.6635 39.6382 92.4704 39.6382 95.3954V116.98C39.6382 118.392 39.7391 119.703 39.9408 121.216L44.0761 146.633C44.2778 147.843 44.4796 148.145 45.4882 148.145C46.4968 148.145 46.7994 147.843 46.9002 146.633L49.3209 121.216C49.4217 119.703 49.6235 118.392 49.6235 116.98V95.3954C49.6235 92.4704 50.4303 91.6635 53.3553 91.6635H59.8104C62.7353 91.6635 63.5422 92.4704 63.5422 95.3954V112.945C63.5422 117.988 63.1388 120.409 62.3319 125.855L56.9863 160.955C56.1794 166.2 54.4648 167.309 48.6148 167.309H43.7735C37.9236 167.309 36.0073 166.099 35.4021 160.955L33.4857 145.624C33.3849 145.221 33.1832 145.12 32.7797 145.12C32.3763 145.12 32.2754 145.221 32.1746 145.624L29.9556 160.955C29.2496 166.099 27.4341 167.309 21.5842 167.309H16.7429C10.893 167.309 9.17832 166.2 8.37144 160.955L3.02582 125.855C2.21894 120.409 1.81549 117.988 1.81549 112.945V95.3954C1.81549 92.4704 2.62238 91.6635 5.54734 91.6635H12.0024C14.9274 91.6635 15.7343 92.4704 15.7343 95.3954V116.98C15.7343 118.392 15.936 119.703 16.0368 121.216L18.4575 146.633C18.5584 147.843 18.8609 148.145 19.8696 148.145C20.8782 148.145 21.0799 147.843 21.2816 146.633L25.4169 121.216C25.6186 119.703 25.7195 118.392 25.7195 116.98V95.3954C25.7195 92.4704 26.5264 91.6635 29.4513 91.6635Z" fill="#FBFBF9"/>
<path d="M96.6545 164.485L88.5856 139.976C88.0813 138.564 87.6779 138.16 86.165 138.16H85.7615C84.3495 138.16 83.946 138.564 83.946 139.976V163.577C83.946 166.502 83.1391 167.309 80.2142 167.309H73.7591C70.8341 167.309 70.0273 166.502 70.0273 163.577V95.3954C70.0273 92.4704 70.8341 91.6635 73.7591 91.6635H87.0727C102.404 91.6635 109.363 96.9083 109.363 109.818V117.08C109.363 126.561 107.85 130.192 102.504 134.731C101.899 135.134 101.798 135.336 101.798 135.84C101.798 136.143 101.899 136.446 102.101 137.152L110.977 163.476C111.884 166.099 110.876 167.309 108.253 167.309H100.891C98.0665 167.309 97.4614 166.906 96.6545 164.485ZM83.946 107.095V122.628C83.946 124.04 84.3495 124.443 85.7615 124.443H87.8796C92.62 124.443 95.0407 122.325 95.0407 117.484V111.937C95.0407 107.196 92.8218 105.28 87.8796 105.28H85.7615C84.3495 105.28 83.946 105.683 83.946 107.095Z" fill="#FBFBF9"/>
<path d="M128.417 163.577C128.417 166.502 127.61 167.309 124.685 167.309H118.23C115.305 167.309 114.498 166.502 114.498 163.577V137.757C114.498 133.319 114.7 131.503 115.91 127.469L125.089 96.7066C126.299 92.4704 127.307 91.6635 132.552 91.6635H136.183C141.428 91.6635 142.437 92.4704 143.647 96.7066L152.825 127.469C154.036 131.403 154.237 133.319 154.237 137.757V163.577C154.237 166.502 153.43 167.309 150.505 167.309H144.05C141.125 167.309 140.318 166.502 140.318 163.577V150.264C140.318 148.852 139.915 148.448 138.503 148.448H130.232C128.82 148.448 128.417 148.852 128.417 150.264V163.577ZM138.806 134.328C139.915 134.328 140.52 133.924 140.52 133.016C140.52 132.512 140.419 132.008 140.318 131.503L135.679 112.037C135.477 111.029 135.275 110.827 134.368 110.827C133.46 110.827 133.258 111.029 133.057 112.037L128.417 131.503C128.316 132.008 128.215 132.512 128.215 133.016C128.215 133.924 128.82 134.328 129.93 134.328H138.806Z" fill="#FBFBF9"/>
<path d="M177.394 141.388H176.083C174.671 141.388 174.268 141.791 174.268 143.203V163.577C174.268 166.502 173.461 167.309 170.536 167.309H164.081C161.156 167.309 160.349 166.502 160.349 163.577V95.3954C160.349 92.4704 161.156 91.6635 164.081 91.6635H177.394C192.725 91.6635 199.684 97.2109 199.684 110.827V122.224C199.684 135.84 192.725 141.388 177.394 141.388ZM174.268 107.6V125.452C174.268 126.864 174.671 127.267 176.083 127.267H178.201C183.143 127.267 185.362 125.25 185.362 120.106V112.945C185.362 107.801 183.143 105.784 178.201 105.784H176.083C174.671 105.784 174.268 106.187 174.268 107.6Z" fill="#FBFBF9"/>
<path d="M41.7563 233.877V236.903C41.7563 253.141 37.1167 259.092 22.4919 259.092C7.86713 259.092 3.02582 253.141 3.02582 236.903V203.619C3.02582 187.38 7.86713 181.43 22.4919 181.43C37.1167 181.43 41.7563 187.38 41.7563 203.619V206.645C41.7563 209.57 40.9494 210.377 38.0245 210.377H31.5694C28.6444 210.377 27.8375 209.57 27.8375 206.645V201.198C27.8375 197.164 26.1229 195.55 22.5928 195.55C19.0627 195.55 17.348 197.164 17.348 201.198V239.324C17.348 243.358 19.0627 244.972 22.5928 244.972C26.1229 244.972 27.8375 243.358 27.8375 239.324V233.877C27.8375 230.952 28.6444 230.145 31.5694 230.145H38.0245C40.9494 230.145 41.7563 230.952 41.7563 233.877Z" fill="#FBFBF9"/>
<path d="M86.2816 235.894C86.2816 252.94 81.4403 259.092 66.8155 259.092C52.1907 259.092 47.3494 252.94 47.3494 235.894V204.627C47.3494 187.683 52.1907 181.43 66.8155 181.43C81.4403 181.43 86.2816 187.683 86.2816 204.627V235.894ZM61.6716 239.324C61.6716 243.358 63.2854 244.972 66.8155 244.972C70.3456 244.972 71.9594 243.358 71.9594 239.324V201.703C71.9594 197.265 70.3456 195.55 66.8155 195.55C63.2854 195.55 61.6716 197.265 61.6716 201.703V239.324Z" fill="#FBFBF9"/>
<path d="M106.077 249.309V251.931C106.077 256.066 104.06 258.084 99.9246 258.084H97.3022C93.2678 258.084 91.1497 256.066 91.1497 251.931V249.309C91.1497 245.274 93.2678 243.156 97.3022 243.156H99.9246C104.06 243.156 106.077 245.274 106.077 249.309Z" fill="#FBFBF9"/>
<rect y="279.639" width="126.25" height="31.25" rx="8" fill="#DB8152"/>
<path d="M26.9803 304.343L24.8387 302.178C24.0385 303.009 23.1834 303.629 22.2734 304.037C21.3634 304.429 20.3358 304.625 19.1905 304.625C18.0608 304.625 17.0567 304.421 16.1781 304.013C15.3152 303.605 14.6405 303.025 14.1541 302.272C13.6835 301.519 13.4481 300.64 13.4481 299.636C13.4481 298.491 13.7698 297.487 14.413 296.624C15.072 295.745 16.0369 295.055 17.3077 294.553C16.8057 293.956 16.4448 293.407 16.2252 292.905C16.0055 292.403 15.8957 291.854 15.8957 291.258C15.8957 290.568 16.0683 289.948 16.4134 289.399C16.7743 288.834 17.2842 288.395 17.9431 288.081C18.6021 287.767 19.363 287.61 20.226 287.61C21.0732 287.61 21.8106 287.775 22.4382 288.104C23.0657 288.434 23.5364 288.897 23.8502 289.493C24.164 290.073 24.3052 290.724 24.2738 291.446H22.1322C22.1479 290.803 21.9675 290.301 21.5909 289.94C21.2144 289.563 20.728 289.375 20.1318 289.375C19.5042 289.375 18.9943 289.556 18.6021 289.916C18.2256 290.262 18.0373 290.709 18.0373 291.258C18.0373 291.729 18.1628 292.184 18.4138 292.623C18.6805 293.062 19.1199 293.603 19.7317 294.247L24.6268 299.165L25.0505 298.506L26.6508 295.824H28.9571L27.0273 299.165C26.7606 299.636 26.4468 300.13 26.086 300.648L29.7808 304.343H26.9803ZM19.1905 302.79C20.0377 302.79 20.7986 302.625 21.4733 302.295C22.1636 301.966 22.8147 301.456 23.4266 300.766L18.6021 295.918C16.5939 296.686 15.5897 297.902 15.5897 299.565C15.5897 300.491 15.9192 301.26 16.5782 301.872C17.2528 302.484 18.1236 302.79 19.1905 302.79Z" fill="#FBFBF9"/>
<path d="M37.2614 296.129C37.2614 294.529 37.6222 293.094 38.344 291.823C39.0657 290.536 40.0463 289.532 41.2857 288.81C42.5409 288.089 43.9294 287.728 45.4513 287.728C47.2399 287.728 48.801 288.159 50.1346 289.022C51.4682 289.885 52.4409 291.109 53.0528 292.693H50.4876C50.0326 291.705 49.3736 290.944 48.5107 290.411C47.6635 289.877 46.6437 289.611 45.4513 289.611C44.3059 289.611 43.2783 289.877 42.3683 290.411C41.4583 290.944 40.7444 291.705 40.2267 292.693C39.7089 293.666 39.4501 294.812 39.4501 296.129C39.4501 297.432 39.7089 298.577 40.2267 299.565C40.7444 300.538 41.4583 301.291 42.3683 301.825C43.2783 302.358 44.3059 302.625 45.4513 302.625C46.6437 302.625 47.6635 302.366 48.5107 301.848C49.3736 301.315 50.0326 300.554 50.4876 299.565H53.0528C52.4409 301.134 51.4682 302.35 50.1346 303.213C48.801 304.06 47.2399 304.484 45.4513 304.484C43.9294 304.484 42.5409 304.131 41.2857 303.425C40.0463 302.703 39.0657 301.707 38.344 300.436C37.6222 299.165 37.2614 297.73 37.2614 296.129Z" fill="#FBFBF9"/>
<path d="M61.8654 304.555C60.6573 304.555 59.5591 304.28 58.5706 303.731C57.5979 303.182 56.8291 302.405 56.2643 301.401C55.7152 300.381 55.4406 299.205 55.4406 297.871C55.4406 296.553 55.723 295.392 56.2878 294.388C56.8683 293.368 57.6528 292.592 58.6412 292.058C59.6297 291.509 60.7358 291.234 61.9596 291.234C63.1833 291.234 64.2894 291.509 65.2779 292.058C66.2663 292.592 67.0429 293.36 67.6078 294.364C68.1883 295.369 68.4785 296.537 68.4785 297.871C68.4785 299.205 68.1804 300.381 67.5842 301.401C67.0037 302.405 66.2114 303.182 65.2073 303.731C64.2032 304.28 63.0892 304.555 61.8654 304.555ZM61.8654 302.672C62.6342 302.672 63.3559 302.492 64.0306 302.131C64.7052 301.77 65.2465 301.229 65.6544 300.507C66.078 299.785 66.2898 298.907 66.2898 297.871C66.2898 296.835 66.0859 295.957 65.678 295.235C65.27 294.513 64.7366 293.98 64.0776 293.635C63.4187 293.274 62.7048 293.094 61.936 293.094C61.1516 293.094 60.4298 293.274 59.7709 293.635C59.1276 293.98 58.6099 294.513 58.2176 295.235C57.8254 295.957 57.6293 296.835 57.6293 297.871C57.6293 298.922 57.8175 299.809 58.1941 300.53C58.5863 301.252 59.1041 301.793 59.7473 302.154C60.3906 302.499 61.0966 302.672 61.8654 302.672Z" fill="#FBFBF9"/>
<path d="M76.5425 293.211H73.836V304.343H71.6944V293.211H70.0235V291.446H71.6944V290.528C71.6944 289.085 72.0631 288.034 72.8005 287.375C73.5536 286.7 74.7539 286.363 76.4013 286.363V288.151C75.4599 288.151 74.7931 288.34 74.4008 288.716C74.0243 289.077 73.836 289.681 73.836 290.528V291.446H76.5425V293.211Z" fill="#FBFBF9"/>
<path d="M84.2876 293.211H81.5812V304.343H79.4396V293.211H77.7686V291.446H79.4396V290.528C79.4396 289.085 79.8083 288.034 80.5457 287.375C81.2988 286.7 82.499 286.363 84.1464 286.363V288.151C83.205 288.151 82.5382 288.34 82.146 288.716C81.7694 289.077 81.5812 289.681 81.5812 290.528V291.446H84.2876V293.211Z" fill="#FBFBF9"/>
<path d="M98.5517 297.4C98.5517 297.808 98.5281 298.24 98.4811 298.695H88.1731C88.2516 299.966 88.683 300.962 89.4675 301.684C90.2677 302.39 91.2326 302.743 92.3622 302.743C93.2879 302.743 94.0567 302.531 94.6685 302.107C95.2961 301.668 95.7354 301.087 95.9865 300.366H98.2928C97.9476 301.605 97.2573 302.617 96.2218 303.402C95.1863 304.17 93.8998 304.555 92.3622 304.555C91.1384 304.555 90.0402 304.28 89.0674 303.731C88.1104 303.182 87.3573 302.405 86.8081 301.401C86.259 300.381 85.9844 299.205 85.9844 297.871C85.9844 296.537 86.2512 295.369 86.7846 294.364C87.318 293.36 88.0633 292.592 89.0203 292.058C89.9931 291.509 91.107 291.234 92.3622 291.234C93.586 291.234 94.6685 291.501 95.6099 292.035C96.5513 292.568 97.273 293.305 97.7751 294.247C98.2928 295.172 98.5517 296.224 98.5517 297.4ZM96.3395 296.953C96.3395 296.137 96.159 295.439 95.7982 294.859C95.4373 294.262 94.9431 293.815 94.3155 293.517C93.7036 293.203 93.0212 293.046 92.2681 293.046C91.1855 293.046 90.2598 293.392 89.491 294.082C88.7379 294.772 88.3065 295.729 88.1966 296.953H96.3395Z" fill="#FBFBF9"/>
<path d="M113.146 297.4C113.146 297.808 113.122 298.24 113.075 298.695H102.767C102.845 299.966 103.277 300.962 104.061 301.684C104.862 302.39 105.826 302.743 106.956 302.743C107.882 302.743 108.651 302.531 109.262 302.107C109.89 301.668 110.329 301.087 110.58 300.366H112.887C112.542 301.605 111.851 302.617 110.816 303.402C109.78 304.17 108.494 304.555 106.956 304.555C105.732 304.555 104.634 304.28 103.661 303.731C102.704 303.182 101.951 302.405 101.402 301.401C100.853 300.381 100.578 299.205 100.578 297.871C100.578 296.537 100.845 295.369 101.379 294.364C101.912 293.36 102.657 292.592 103.614 292.058C104.587 291.509 105.701 291.234 106.956 291.234C108.18 291.234 109.262 291.501 110.204 292.035C111.145 292.568 111.867 293.305 112.369 294.247C112.887 295.172 113.146 296.224 113.146 297.4ZM110.933 296.953C110.933 296.137 110.753 295.439 110.392 294.859C110.031 294.262 109.537 293.815 108.909 293.517C108.298 293.203 107.615 293.046 106.862 293.046C105.779 293.046 104.854 293.392 104.085 294.082C103.332 294.772 102.9 295.729 102.791 296.953H110.933Z" fill="#FBFBF9"/>
</svg>
