<svg width="20" height="20" viewBox="0 0 20 20" fill="none" xmlns="http://www.w3.org/2000/svg">
<path d="M6.66536 1.99963C4.0927 1.99963 2 4.09427 2 6.6676V13.3343C2 15.9069 4.09464 17.9996 6.66797 17.9996H13.3346C15.9073 17.9996 18 15.905 18 13.3317V6.665C18 4.09233 15.9054 1.99963 13.332 1.99963H6.66536ZM14.6667 4.6663C15.0347 4.6663 15.3333 4.96497 15.3333 5.33297C15.3333 5.70097 15.0347 5.99963 14.6667 5.99963C14.2987 5.99963 14 5.70097 14 5.33297C14 4.96497 14.2987 4.6663 14.6667 4.6663ZM10 5.99963C12.206 5.99963 14 7.79363 14 9.99963C14 12.2056 12.206 13.9996 10 13.9996C7.794 13.9996 6 12.2056 6 9.99963C6 7.79363 7.794 5.99963 10 5.99963ZM10 7.33297C9.29276 7.33297 8.61448 7.61392 8.11438 8.11402C7.61428 8.61411 7.33333 9.29239 7.33333 9.99963C7.33333 10.7069 7.61428 11.3852 8.11438 11.8853C8.61448 12.3853 9.29276 12.6663 10 12.6663C10.7072 12.6663 11.3855 12.3853 11.8856 11.8853C12.3857 11.3852 12.6667 10.7069 12.6667 9.99963C12.6667 9.29239 12.3857 8.61411 11.8856 8.11402C11.3855 7.61392 10.7072 7.33297 10 7.33297Z" fill="#3F4D2D"/>
</svg>
