<svg width="240" height="40" viewBox="0 0 240 40" fill="none" xmlns="http://www.w3.org/2000/svg">
<path d="M240 34.9604V36.311C240 38.4409 238.961 39.4798 236.831 39.4798H235.481C233.403 39.4798 232.312 38.4409 232.312 36.311V34.9604C232.312 32.8825 233.403 31.7916 235.481 31.7916H236.831C238.961 31.7916 240 32.8825 240 34.9604Z" fill="#FBFBF9"/>
<path d="M229.805 28.0515C229.805 36.8305 227.311 39.9993 219.779 39.9993C212.246 39.9993 209.753 36.8305 209.753 28.0515V11.9479C209.753 3.22073 212.246 0 219.779 0C227.311 0 229.805 3.22073 229.805 11.9479V28.0515ZM217.129 29.8177C217.129 31.8956 217.961 32.7267 219.779 32.7267C221.597 32.7267 222.428 31.8956 222.428 29.8177V10.4414C222.428 8.15571 221.597 7.27261 219.779 7.27261C217.961 7.27261 217.129 8.15571 217.129 10.4414V29.8177Z" fill="#FBFBF9"/>
<path d="M206.872 27.0125V28.5709C206.872 36.9344 204.483 39.9993 196.95 39.9993C189.418 39.9993 186.925 36.9344 186.925 28.5709V11.4284C186.925 3.06488 189.418 0 196.95 0C204.483 0 206.872 3.06488 206.872 11.4284V12.9868C206.872 14.4933 206.457 14.9088 204.95 14.9088H201.626C200.119 14.9088 199.704 14.4933 199.704 12.9868V10.1816C199.704 8.10376 198.82 7.27261 197.002 7.27261C195.184 7.27261 194.301 8.10376 194.301 10.1816V29.8177C194.301 31.8956 195.184 32.7267 197.002 32.7267C198.82 32.7267 199.704 31.8956 199.704 29.8177V27.0125C199.704 25.5061 200.119 25.0905 201.626 25.0905H204.95C206.457 25.0905 206.872 25.5061 206.872 27.0125Z" fill="#FBFBF9"/>
<path d="M164.416 26.1294H163.74C163.013 26.1294 162.805 26.3372 162.805 27.0644V37.5577C162.805 39.0642 162.39 39.4798 160.883 39.4798H157.559C156.052 39.4798 155.637 39.0642 155.637 37.5577V2.44145C155.637 0.934987 156.052 0.519409 157.559 0.519409H164.416C172.312 0.519409 175.896 3.3765 175.896 10.3894V16.2594C175.896 23.2723 172.312 26.1294 164.416 26.1294ZM162.805 8.72707V17.9217C162.805 18.649 163.013 18.8568 163.74 18.8568H164.831C167.377 18.8568 168.52 17.8178 168.52 15.1685V11.4803C168.52 8.83096 167.377 7.79202 164.831 7.79202H163.74C163.013 7.79202 162.805 7.99981 162.805 8.72707Z" fill="#FBFBF9"/>
<path d="M139.19 37.5577C139.19 39.0642 138.775 39.4798 137.268 39.4798H133.944C132.437 39.4798 132.022 39.0642 132.022 37.5577V24.2593C132.022 21.9736 132.126 21.0385 132.749 18.9607L137.476 3.11677C138.1 0.934987 138.619 0.519409 141.32 0.519409H143.19C145.892 0.519409 146.411 0.934987 147.034 3.11677L151.762 18.9607C152.385 20.9866 152.489 21.9736 152.489 24.2593V37.5577C152.489 39.0642 152.073 39.4798 150.567 39.4798H147.242C145.736 39.4798 145.32 39.0642 145.32 37.5577V30.7007C145.32 29.9735 145.112 29.7657 144.385 29.7657H140.125C139.398 29.7657 139.19 29.9735 139.19 30.7007V37.5577ZM144.541 22.4931C145.112 22.4931 145.424 22.2853 145.424 21.8178C145.424 21.558 145.372 21.2983 145.32 21.0385L142.931 11.0127C142.827 10.4933 142.723 10.3894 142.255 10.3894C141.788 10.3894 141.684 10.4933 141.58 11.0127L139.19 21.0385C139.138 21.2983 139.087 21.558 139.087 21.8178C139.087 22.2853 139.398 22.4931 139.97 22.4931H144.541Z" fill="#FBFBF9"/>
<path d="M122.832 38.0253L118.676 25.4021C118.416 24.6748 118.208 24.4671 117.429 24.4671H117.221C116.494 24.4671 116.286 24.6748 116.286 25.4021V37.5577C116.286 39.0642 115.871 39.4798 114.364 39.4798H111.04C109.533 39.4798 109.117 39.0642 109.117 37.5577V2.44145C109.117 0.934987 109.533 0.519409 111.04 0.519409H117.897C125.793 0.519409 129.377 3.22067 129.377 9.8699V13.6101C129.377 18.4931 128.598 20.3632 125.844 22.7009C125.533 22.9086 125.481 23.0125 125.481 23.2723C125.481 23.4281 125.533 23.584 125.637 23.9476L130.208 37.5058C130.676 38.8564 130.156 39.4798 128.805 39.4798H125.013C123.559 39.4798 123.247 39.272 122.832 38.0253ZM116.286 8.46733V16.4672C116.286 17.1945 116.494 17.4022 117.221 17.4022H118.312C120.754 17.4022 122 16.3114 122 13.8179V10.9608C122 8.51928 120.858 7.53228 118.312 7.53228H117.221C116.494 7.53228 116.286 7.74007 116.286 8.46733Z" fill="#FBFBF9"/>
<path d="M88.2193 0.519409H91.5439C93.0504 0.519409 93.466 0.934987 93.466 2.44145V13.5582C93.466 14.2854 93.5179 14.9607 93.6218 15.7399L95.7516 28.8306C95.8555 29.454 95.9594 29.6098 96.4789 29.6098C96.9984 29.6098 97.1542 29.454 97.2062 28.8306L98.4529 15.7399C98.5048 14.9607 98.6087 14.2854 98.6087 13.5582V2.44145C98.6087 0.934987 99.0243 0.519409 100.531 0.519409H103.855C105.362 0.519409 105.777 0.934987 105.777 2.44145V11.4803C105.777 14.0776 105.57 15.3244 105.154 18.1295L102.401 36.2071C101.985 38.9084 101.102 39.4798 98.0893 39.4798H95.5958C92.5829 39.4798 91.5959 38.8564 91.2842 36.2071L90.2972 28.3111C90.2452 28.1034 90.1413 28.0514 89.9336 28.0514C89.7258 28.0514 89.6738 28.1034 89.6219 28.3111L88.479 36.2071C88.1154 38.8564 87.1804 39.4798 84.1674 39.4798H81.674C78.661 39.4798 77.7779 38.9084 77.3623 36.2071L74.6091 18.1295C74.1936 15.3244 73.9858 14.0776 73.9858 11.4803V2.44145C73.9858 0.934987 74.4014 0.519409 75.9078 0.519409H79.2324C80.7389 0.519409 81.1545 0.934987 81.1545 2.44145V13.5582C81.1545 14.2854 81.2584 14.9607 81.3103 15.7399L82.5571 28.8306C82.609 29.454 82.7648 29.6098 83.2843 29.6098C83.8038 29.6098 83.9077 29.454 84.0116 28.8306L86.1414 15.7399C86.2453 14.9607 86.2973 14.2854 86.2973 13.5582V2.44145C86.2973 0.934987 86.7128 0.519409 88.2193 0.519409Z" fill="#FBFBF9"/>
<path d="M53.3307 8.72707V14.5451C53.3307 15.2205 53.5385 15.4802 54.2657 15.4802H60.7072C62.2137 15.4802 62.6292 15.8958 62.6292 17.4022V20.8308C62.6292 22.3372 62.2137 22.7528 60.8111 22.7528H54.2657C53.5385 22.7528 53.3307 22.9606 53.3307 23.6879V31.2721C53.3307 31.9475 53.5385 32.2072 54.2657 32.2072H61.3306C62.837 32.2072 63.2526 32.6228 63.2526 34.1292V37.5577C63.2526 39.0642 62.837 39.4798 61.3306 39.4798H48.084C46.5776 39.4798 46.162 39.0642 46.162 37.5577V2.44145C46.162 0.934987 46.5776 0.519409 48.084 0.519409H61.3306C62.837 0.519409 63.2526 0.934987 63.2526 2.44145V5.86997C63.2526 7.37644 62.837 7.79202 61.3306 7.79202H54.2657C53.5385 7.79202 53.3307 7.99981 53.3307 8.72707Z" fill="#FBFBF9"/>
<path d="M34.2478 37.5577V23.532C34.2478 22.8048 34.04 22.597 33.3128 22.597H29.0531C28.3258 22.597 28.1181 22.8048 28.1181 23.532V37.5577C28.1181 39.0642 27.7025 39.4798 26.196 39.4798H22.8714C21.3649 39.4798 20.9493 39.0642 20.9493 37.5577V2.44145C20.9493 0.934987 21.3649 0.519409 22.8714 0.519409H26.196C27.7025 0.519409 28.1181 0.934987 28.1181 2.44145V14.3893C28.1181 15.0646 28.3258 15.3244 29.0531 15.3244H33.3128C34.04 15.3244 34.2478 15.0646 34.2478 14.3893V2.44145C34.2478 0.934987 34.6634 0.519409 36.1699 0.519409H39.4945C41.001 0.519409 41.4165 0.934987 41.4165 2.44145V37.5577C41.4165 39.0642 41.001 39.4798 39.4945 39.4798H36.1699C34.6634 39.4798 34.2478 39.0642 34.2478 37.5577Z" fill="#FBFBF9"/>
<path d="M17.4023 7.79202H14.1816C13.4543 7.79202 13.2465 7.99981 13.2465 8.72707V37.5577C13.2465 39.0642 12.831 39.4798 11.3245 39.4798H7.99986C6.4934 39.4798 6.07782 39.0642 6.07782 37.5577V8.72707C6.07782 7.99981 5.87003 7.79202 5.14277 7.79202H1.92205C0.415577 7.79202 0 7.37644 0 5.86997V2.44145C0 0.934987 0.415577 0.519409 1.92205 0.519409H17.4023C18.9088 0.519409 19.3244 0.934987 19.3244 2.44145V5.86997C19.3244 7.37644 18.9088 7.79202 17.4023 7.79202Z" fill="#FBFBF9"/>
</svg>
