<svg width="14" height="16" viewBox="0 0 14 16" fill="none" xmlns="http://www.w3.org/2000/svg">
<path fill-rule="evenodd" clip-rule="evenodd" d="M5.6421 12.3944L6.43674 13.7138C7.17262 14.9884 8.35115 15.3316 9.61264 14.6033C10.5496 14.0623 10.3856 14.157 11.4043 13.5689C12.3794 13.0059 12.7127 11.7363 12.1439 10.751C11.9311 10.3825 11.6331 9.98038 11.3615 9.50992C11.1287 9.10674 10.9285 8.64592 10.6699 8.19813C10.3917 7.71621 10.0538 7.24482 9.76474 6.74421C9.47312 6.23911 9.23025 5.70453 8.94769 5.21513C8.94769 5.21513 8.26722 4.13249 7.67882 3.13425C7.37505 2.61888 7.08721 1.9777 6.99105 1.64781C6.64191 0.449297 5.8429 0.167369 5.0302 0.636586C4.67079 0.84409 4.66616 1.21921 4.32436 1.41655C3.98254 1.6139 3.69117 1.40968 3.10721 1.74683C2.52324 2.08398 2.6538 2.81064 2.06984 3.14779C1.72383 3.34756 1.17103 3.54544 1.28903 4.39997C1.3863 5.104 2.03551 4.94713 1.98758 6.19415C1.98526 6.25596 1.98495 6.31826 1.98685 6.38129C2.03905 8.10708 3.15105 7.79168 5.07341 11.2907C5.24998 11.6762 5.44083 12.0458 5.6421 12.3944ZM4.0248 7.82313C4.0323 7.87296 4.0067 7.92163 3.96155 7.94271C3.91643 7.96377 3.8625 7.95239 3.82878 7.91471C3.76867 7.84808 3.7108 7.78447 3.65501 7.72332C3.21397 7.24037 2.92034 7.03046 2.90002 6.36142C2.87563 5.55152 3.3234 4.80858 3.98052 4.20959C3.99449 4.19687 4.01151 4.18239 4.03048 4.16678C4.06894 4.13395 4.12464 4.13069 4.16719 4.15929C4.20974 4.18788 4.22868 4.24107 4.21376 4.28989C3.90607 5.35929 3.85673 6.63303 4.0248 7.82313ZM5.16644 9.66483C4.82358 8.62815 4.60941 7.53278 4.60016 6.47925C4.58921 5.24529 4.8644 4.06674 5.58013 3.1392C5.64037 3.06089 5.70392 2.98466 5.77052 2.91L5.77056 2.90997C5.91171 2.75239 6.11956 2.67259 6.33077 2.69485C6.54195 2.71712 6.73148 2.83894 6.84162 3.02321C7.40931 3.97294 8.34817 5.54366 8.34817 5.54366C8.55275 5.898 8.73599 6.27662 8.93274 6.6501C8.86063 6.64389 8.78857 6.63965 8.71684 6.63787C8.01095 6.62014 7.32856 6.82473 6.76887 7.38709C6.63585 7.52104 6.55865 7.71778 6.69299 7.85285C6.82734 7.98792 7.04033 7.92476 7.17349 7.79106C7.66751 7.2942 8.34451 7.28775 8.96845 7.36243C9.01899 7.36847 9.08123 7.37107 9.14326 7.37645C9.23247 7.38442 9.32134 7.39824 9.37465 7.43623C9.38444 7.44487 9.39281 7.45465 9.39973 7.46561C9.62899 7.82232 9.86511 8.17108 10.0695 8.52517C10.2327 8.80775 10.3731 9.09515 10.5126 9.37011C10.4353 9.35889 10.357 9.3493 10.2777 9.34129C10.1578 9.32909 10.0357 9.32051 9.91205 9.31614C8.9645 9.28178 7.96305 9.55629 7.15073 10.3728C7.01757 10.5065 6.97956 10.7142 7.11391 10.8492C7.24811 10.9841 7.4611 10.9209 7.59426 10.7872C8.25784 10.12 9.10912 10.0156 9.8833 10.0438C10.1342 10.0527 10.4838 10.0715 10.7215 10.11C10.8266 10.1271 10.9099 10.1481 10.9529 10.1738C10.9632 10.1831 10.9721 10.1936 10.9795 10.2052C11.1893 10.5274 11.394 10.8192 11.5519 11.0928C11.931 11.7494 11.7089 12.5956 11.059 12.9708C9.99533 13.585 10.3311 13.3911 9.26736 14.0053C8.35531 14.5318 7.56067 14.2935 7.02865 13.3721L6.234 12.0527C5.81909 11.334 5.44904 10.5193 5.16644 9.66483Z" fill="#FBFBF9"/>
</svg>
