<svg width="24" height="24" viewBox="0 0 24 24" fill="none" xmlns="http://www.w3.org/2000/svg">
<mask id="path-1-inside-1_367_9042" fill="white">
<path d="M20 15.0644C20 19.095 17.3819 20.8637 15.3588 21.4601C14.9274 21.5873 14.6438 21.1108 14.9019 20.7595C15.7823 19.5608 16.8 17.7321 16.8 16.0118C16.8 14.1639 15.1559 11.9822 13.8721 10.6365C13.5786 10.3289 13.0667 10.5325 13.0507 10.9469C12.9976 12.3198 12.7689 14.1567 11.7828 15.5963C11.6241 15.828 11.2872 15.8471 11.1063 15.6305C10.7982 15.2614 10.4901 14.8053 10.182 14.445C10.016 14.251 9.71604 14.2484 9.52461 14.42C8.77825 15.0895 7.73333 16.1336 7.73333 17.4328C7.73333 18.3701 8.20479 19.5366 8.69077 20.4399C8.91147 20.8501 8.50204 21.3313 8.08142 21.1006C6.24558 20.0938 4 18.0078 4 15.0644C4 12.0836 8.31029 7.95428 9.95605 4.05311C10.2157 3.43751 11.0161 3.14825 11.5727 3.54997C14.9439 5.98287 20 10.6858 20 15.0644Z"/>
</mask>
<path d="M15.3588 21.4601L13.945 16.6641L13.9444 16.6643L15.3588 21.4601ZM14.9019 20.7595L18.9312 23.72L18.9318 23.7193L14.9019 20.7595ZM13.8721 10.6365L17.4898 7.1851L17.4896 7.18493L13.8721 10.6365ZM13.0507 10.9469L18.047 11.1401L18.047 11.1398L13.0507 10.9469ZM11.7828 15.5963L7.65773 12.7707L7.65751 12.771L11.7828 15.5963ZM11.1063 15.6305L7.26786 18.8346L7.26822 18.835L11.1063 15.6305ZM10.182 14.445L13.982 11.1954L13.9812 11.1945L10.182 14.445ZM9.52461 14.42L6.18649 10.6975L6.1859 10.6981L9.52461 14.42ZM8.69077 20.4399L4.28756 22.8088L4.2876 22.8089L8.69077 20.4399ZM8.08142 21.1006L10.4858 16.7166L10.4856 16.7165L8.08142 21.1006ZM9.95605 4.05311L14.5629 5.99656L14.563 5.99625L9.95605 4.05311ZM11.5727 3.54997L8.64652 7.60429L8.64671 7.60442L11.5727 3.54997ZM15 15.0644C15 15.5222 14.9274 15.7914 14.8752 15.9311C14.8236 16.0694 14.7632 16.1583 14.7015 16.2278C14.5558 16.3916 14.2868 16.5634 13.945 16.6641L16.7726 26.2561C18.4539 25.7604 20.5055 24.7497 22.1746 22.8724C23.9241 20.9048 25 18.2614 25 15.0644H15ZM13.9444 16.6643C15.9456 16.0741 18.0433 16.9407 19.104 18.6269C20.0883 20.1915 20.0364 22.2159 18.9312 23.72L10.8726 17.7991C9.50933 19.6545 9.47018 22.0928 10.6396 23.9517C11.8854 25.9321 14.3406 26.9733 16.7732 26.2559L13.9444 16.6643ZM18.9318 23.7193C19.9614 22.3175 21.8 19.3931 21.8 16.0118H11.8C11.8 15.9338 11.8087 16.107 11.6102 16.5547C11.4255 16.9712 11.1542 17.4155 10.872 17.7998L18.9318 23.7193ZM21.8 16.0118C21.8 13.7393 20.8461 11.7883 20.0955 10.5476C19.2821 9.20327 18.2989 8.03322 17.4898 7.1851L10.2544 14.0879C10.7291 14.5855 11.2098 15.1791 11.5395 15.724C11.7003 15.9898 11.7823 16.1739 11.8169 16.2703C11.8544 16.3749 11.8 16.2747 11.8 16.0118H21.8ZM17.4896 7.18493C14.0725 3.60349 8.23676 6.03172 8.05442 10.754L18.047 11.1398C17.8966 15.0333 13.0847 17.0543 10.2546 14.0881L17.4896 7.18493ZM8.05444 10.7536C8.03462 11.2659 7.98554 11.7284 7.89463 12.1224C7.80263 12.5212 7.69916 12.7102 7.65773 12.7707L15.9079 18.4218C17.7317 15.7591 17.9863 12.7087 18.047 11.1401L8.05444 10.7536ZM7.65751 12.771C9.34035 10.3138 12.9659 10.0563 14.9444 12.4259L7.26822 18.835C9.60848 21.638 13.9079 21.3422 15.9081 18.4215L7.65751 12.771ZM14.9447 12.4264C14.891 12.3619 14.8216 12.2709 14.6427 12.0325C14.502 11.8452 14.2555 11.5153 13.982 11.1954L6.38199 17.6946C6.41658 17.7351 6.47815 17.8134 6.64564 18.0364C6.77476 18.2084 7.01354 18.5299 7.26786 18.8346L14.9447 12.4264ZM13.9812 11.1945C11.7642 8.6033 8.1992 8.89265 6.18649 10.6975L12.8627 18.1425C11.2329 19.6041 8.26776 19.8987 6.38278 17.6956L13.9812 11.1945ZM6.1859 10.6981C5.74778 11.0911 4.94674 11.8305 4.2512 12.8255C3.54958 13.8291 2.73333 15.4069 2.73333 17.4328H12.7333C12.7333 17.7901 12.6597 18.0784 12.5874 18.2705C12.5189 18.4524 12.4521 18.5478 12.447 18.5551C12.4413 18.5633 12.4662 18.5271 12.5446 18.445C12.6223 18.3637 12.7221 18.2687 12.8633 18.142L6.1859 10.6981ZM2.73333 17.4328C2.73333 19.6733 3.7247 21.7626 4.28756 22.8088L13.094 18.071C12.9477 17.7991 12.8306 17.535 12.7602 17.3295C12.7442 17.2826 12.7328 17.2453 12.7252 17.2178C12.7174 17.19 12.7147 17.1765 12.7147 17.1769C12.7148 17.1769 12.719 17.1973 12.7234 17.2366C12.7277 17.2755 12.7333 17.342 12.7333 17.4328H2.73333ZM4.2876 22.8089C3.31829 21.0072 3.74418 18.9725 4.8957 17.6818C6.14653 16.2799 8.43677 15.5929 10.4858 16.7166L5.67708 25.4846C8.14669 26.839 10.852 26.0267 12.3575 24.3393C13.7637 22.7632 14.2839 20.2827 13.0939 18.0709L4.2876 22.8089ZM10.4856 16.7165C10.0399 16.4721 9.58923 16.1116 9.29673 15.7361C9.03288 15.3974 9 15.1919 9 15.0644H-1C-1 20.7106 3.19508 24.1234 5.67722 25.4846L10.4856 16.7165ZM9 15.0644C9 15.4469 8.88617 15.4465 9.17921 14.8552C9.44802 14.3128 9.87371 13.6325 10.4992 12.71C11.5664 11.1362 13.4906 8.53835 14.5629 5.99656L5.34921 2.10965C4.77574 3.46903 3.72195 4.88648 2.22251 7.09784C1.56473 8.06792 0.809982 9.22263 0.219188 10.4147C-0.347387 11.558 -1 13.1916 -1 15.0644H9ZM14.563 5.99625C14.0881 7.12218 13.1761 7.85472 12.2106 8.17124C11.207 8.50026 9.83792 8.46417 8.64652 7.60429L14.4989 -0.504349C10.965 -3.05493 6.67347 -1.03001 5.34908 2.10996L14.563 5.99625ZM8.64671 7.60442C10.1051 8.65688 11.8663 10.163 13.2058 11.7741C14.6693 13.5343 15 14.6609 15 15.0644H25C25 11.0893 22.8027 7.67515 20.8953 5.38097C18.8639 2.93771 16.4115 0.875958 14.4987 -0.504486L8.64671 7.60442Z" fill="#FF9729" mask="url(#path-1-inside-1_367_9042)"/>
</svg>
