<svg width="240" height="240" viewBox="0 0 240 240" fill="none" xmlns="http://www.w3.org/2000/svg">
<rect width="240" height="240" rx="48" fill="#DB8152"/>
<g clip-path="url(#clip0_247_21388)">
<g clip-path="url(#clip1_247_21388)">
<path fill-rule="evenodd" clip-rule="evenodd" d="M170.138 134.812L178.483 149.904C186.722 164.175 183.453 177.524 169.328 185.679C158.837 191.736 160.674 190.675 149.268 197.261C138.35 203.564 124.174 199.688 117.805 188.657C115.422 184.53 113.191 179.39 110.15 174.123C107.544 169.608 104.196 165.086 101.302 160.073C98.1865 154.677 95.5075 148.761 92.2714 143.156C89.0062 137.501 85.1824 132.153 82.0188 126.674C82.0188 126.674 75.3304 114.014 68.945 102.721C65.6483 96.89 61.0426 90.5094 58.3821 87.7302C48.7154 77.6351 50.4547 68.3094 59.5542 63.0558C63.5783 60.7324 67.2416 62.7876 71.0685 60.5781C74.8958 58.3684 74.5467 54.3998 81.085 50.6249C87.6233 46.85 93.9385 52.184 100.477 48.4091C104.351 46.1724 109.364 41.92 116.99 47.848C123.272 52.7325 118.116 58.1494 130.476 64.6658C131.089 64.9893 131.695 65.3352 132.295 65.7064C148.737 75.874 139.453 84.8907 162.62 123.12C165.369 126.99 167.884 130.909 170.138 134.812ZM134.867 93.5391C135.308 93.8907 135.923 93.915 136.38 93.5952C136.837 93.2757 137.029 92.689 136.852 92.1511C136.543 91.1952 136.25 90.278 135.969 89.3947C133.755 82.4144 133.364 78.3922 126.99 74.4497C119.274 69.6792 109.563 69.8618 100.076 72.8802C99.8746 72.9444 99.6389 73.0284 99.3813 73.1251C98.8476 73.3141 98.5042 73.836 98.5433 74.4087C98.5823 74.9813 98.992 75.4627 99.549 75.5913C111.641 78.5946 124.268 85.247 134.867 93.5391ZM146.334 114.919C138.201 105.791 128.779 97.5824 118.615 91.5947C106.711 84.5805 93.7428 80.651 80.7421 82.3984C79.6455 82.5442 78.5505 82.7337 77.4538 82.9614L77.4532 82.9617C75.1351 83.4482 73.1977 85.0169 72.2311 87.1894C71.2649 89.3618 71.385 91.8816 72.5552 93.9811C78.5861 104.803 88.5606 122.699 88.5606 122.699C90.8512 126.667 93.4966 130.563 96.0166 134.562C96.3601 133.828 96.7224 133.105 97.1067 132.4C100.886 125.456 106.691 119.985 115.277 117.706C117.32 117.166 119.66 117.519 120.218 119.578C120.775 121.636 118.971 123.348 116.929 123.891C109.345 125.899 105.493 132.428 102.724 138.896C102.499 139.42 102.176 140.038 101.881 140.67C101.459 141.579 101.095 142.518 101.165 143.248C101.194 143.391 101.242 143.527 101.31 143.656C103.485 147.875 105.545 152.117 107.834 156.082C109.661 159.246 111.662 162.216 113.547 165.108C113.87 164.296 114.216 163.483 114.582 162.669C115.135 161.438 115.736 160.206 116.385 158.983C121.357 149.603 129.625 141.429 142.09 138.123C144.132 137.581 146.358 138.375 146.916 140.434C147.472 142.49 145.667 144.201 143.625 144.744C133.441 147.443 127.663 155.113 123.602 162.778C122.284 165.261 120.508 168.756 119.552 171.276C119.129 172.391 118.867 173.316 118.874 173.877C118.907 174.029 118.959 174.174 119.031 174.311C120.98 178.148 122.663 181.767 124.432 184.83C128.676 192.182 138.125 194.766 145.402 190.565C157.312 183.688 153.552 185.859 165.462 178.983C175.674 173.087 177.812 164.048 171.856 153.73L163.511 138.639C158.865 130.592 153.037 122.443 146.334 114.919Z" fill="#FBFBF9"/>
</g>
</g>
<defs>
<clipPath id="clip0_247_21388">
<rect width="160" height="160" fill="white" transform="translate(39 42)"/>
</clipPath>
<clipPath id="clip1_247_21388">
<rect width="158.575" height="242.267" fill="white" transform="translate(-7.66666 54.6206) rotate(-30)"/>
</clipPath>
</defs>
</svg>
