<svg width="16" height="17" viewBox="0 0 16 17" fill="none" xmlns="http://www.w3.org/2000/svg">
<path d="M1.33331 8.889C1.33331 6.37484 1.33331 5.11776 2.11436 4.33671C2.89541 3.55566 4.15249 3.55566 6.66665 3.55566H9.33331C11.8474 3.55566 13.1046 3.55566 13.8856 4.33671C14.6666 5.11776 14.6666 6.37484 14.6666 8.889C14.6666 11.4031 14.6666 12.6603 13.8856 13.4413C13.1046 14.2223 11.8474 14.2223 9.33331 14.2223H6.66665C4.15249 14.2223 2.89541 14.2223 2.11436 13.4413C1.33331 12.6603 1.33331 11.4031 1.33331 8.889Z" stroke="#FBFBF9" stroke-width="1.5"/>
<path d="M4 6.22217L5.43927 7.42155C6.66369 8.4419 7.27593 8.9521 8 8.9521C8.72407 8.9521 9.33633 8.4419 10.5607 7.42155L12 6.22217" stroke="#FBFBF9" stroke-width="1.5" stroke-linecap="round"/>
</svg>
