<svg width="16" height="17" viewBox="0 0 16 17" fill="none" xmlns="http://www.w3.org/2000/svg">
<path d="M2.66669 7.65103C2.66669 4.65275 5.0545 2.22217 8.00002 2.22217C10.9456 2.22217 13.3334 4.65275 13.3334 7.65103C13.3334 10.6258 11.6312 14.0971 8.97529 15.3384C8.35622 15.6278 7.64382 15.6278 7.02475 15.3384C4.3689 14.0971 2.66669 10.6258 2.66669 7.65103Z" stroke="#FBFBF9" stroke-width="1.5"/>
<path d="M8 9.55566C9.10457 9.55566 10 8.66023 10 7.55566C10 6.45109 9.10457 5.55566 8 5.55566C6.89543 5.55566 6 6.45109 6 7.55566C6 8.66023 6.89543 9.55566 8 9.55566Z" stroke="#FBFBF9" stroke-width="1.5"/>
</svg>
