<svg width="16" height="17" viewBox="0 0 16 17" fill="none" xmlns="http://www.w3.org/2000/svg">
<path d="M11.0863 10.1495L11.39 9.84759L10.6849 9.13846L10.3813 9.44039L11.0863 10.1495ZM12.4097 9.72113L13.6834 10.4135L14.161 9.53499L12.8873 8.84259L12.4097 9.72113ZM13.9286 11.7897L12.9815 12.7313L13.6866 13.4405L14.6337 12.4988L13.9286 11.7897ZM12.4045 13.0345C11.4379 13.1246 8.93706 13.0443 6.22945 10.3521L5.52435 11.0612C8.47906 13.9991 11.2913 14.1426 12.4973 14.0302L12.4045 13.0345ZM6.22945 10.3521C3.64853 7.78579 3.221 5.62736 3.16778 4.69096L2.16939 4.7477C2.23637 5.92625 2.76575 8.31826 5.52435 11.0612L6.22945 10.3521ZM7.14633 6.23187L7.33753 6.04174L6.63246 5.33263L6.44125 5.52275L7.14633 6.23187ZM7.48973 3.61827L6.64909 2.49533L5.84856 3.09463L6.68919 4.21757L7.48973 3.61827ZM3.82174 2.25092L2.77535 3.29138L3.48044 4.0005L4.52684 2.96004L3.82174 2.25092ZM6.79379 5.87731C6.44125 5.52275 6.44077 5.52322 6.44029 5.5237C6.44013 5.52386 6.43965 5.52435 6.43933 5.52467C6.43867 5.52533 6.438 5.526 6.43733 5.52669C6.43598 5.52807 6.43458 5.5295 6.43314 5.53099C6.43025 5.53399 6.4272 5.53723 6.42399 5.54072C6.41755 5.5477 6.41049 5.55569 6.40293 5.56471C6.38782 5.58274 6.37069 5.60495 6.35269 5.63151C6.31661 5.68477 6.27729 5.75519 6.24392 5.84375C6.17583 6.02445 6.13933 6.26266 6.18509 6.55763C6.27459 7.13448 6.67186 7.89646 7.68953 8.90833L8.39459 8.19919C7.44226 7.25225 7.21539 6.67599 7.17326 6.40432C7.15319 6.27503 7.17399 6.2114 7.17973 6.19633C7.18319 6.18701 7.18486 6.18606 7.18059 6.19243C7.17846 6.19554 7.17493 6.20041 7.16939 6.20698C7.16666 6.21027 7.16339 6.21399 7.15959 6.21813C7.15766 6.22021 7.15566 6.22239 7.15339 6.22467C7.15233 6.22582 7.15119 6.22699 7.14999 6.22819C7.14939 6.22879 7.14879 6.22939 7.14819 6.23001C7.14792 6.23031 7.14746 6.23078 7.14726 6.23093C7.14679 6.2314 7.14633 6.23187 6.79379 5.87731ZM7.68953 8.90833C8.70753 9.92053 9.47306 10.3145 10.0509 10.4031C10.3461 10.4484 10.5842 10.4123 10.7648 10.345C10.8533 10.312 10.9239 10.2731 10.9772 10.2374C11.0039 10.2195 11.0261 10.2025 11.0442 10.1875C11.0533 10.1801 11.0613 10.1731 11.0683 10.1667C11.0718 10.1635 11.0751 10.1605 11.0781 10.1576C11.0796 10.1561 11.081 10.1547 11.0824 10.1534C11.0831 10.1527 11.0837 10.1521 11.0844 10.1514C11.0847 10.1511 11.0853 10.1506 11.0854 10.1505C11.0859 10.15 11.0863 10.1495 10.7338 9.79493C10.3813 9.44039 10.3817 9.43993 10.3822 9.43946C10.3823 9.43933 10.3828 9.43886 10.3831 9.43853C10.3837 9.43793 10.3843 9.43733 10.3849 9.43673C10.3862 9.43559 10.3873 9.43446 10.3885 9.43333C10.3908 9.43113 10.393 9.42913 10.3951 9.42719C10.3992 9.42346 10.4029 9.42019 10.4063 9.41753C10.4128 9.41206 10.4177 9.40859 10.4207 9.40653C10.4269 9.40239 10.4256 9.40426 10.4157 9.40793C10.3994 9.41399 10.334 9.43486 10.2025 9.41466C9.92699 9.37246 9.34666 9.14579 8.39459 8.19919L7.68953 8.90833ZM6.64909 2.49533C5.96955 1.58761 4.6333 1.44397 3.82174 2.25092L4.52684 2.96004C4.88129 2.60759 5.51081 2.64347 5.84856 3.09463L6.64909 2.49533ZM3.16778 4.69096C3.15467 4.46022 3.26049 4.21919 3.48044 4.0005L2.77535 3.29138C2.41713 3.64756 2.13552 4.15176 2.16939 4.7477L3.16778 4.69096ZM12.9815 12.7313C12.7983 12.9135 12.6019 13.0161 12.4045 13.0345L12.4973 14.0302C12.987 13.9845 13.3883 13.7371 13.6866 13.4405L12.9815 12.7313ZM7.33753 6.04174C7.99386 5.38913 8.04266 4.35686 7.48973 3.61827L6.68919 4.21757C6.95819 4.57689 6.91819 5.04851 6.63246 5.33263L7.33753 6.04174ZM13.6834 10.4135C14.2286 10.7099 14.3135 11.4069 13.9286 11.7897L14.6337 12.4988C15.5272 11.6103 15.2517 10.1279 14.161 9.53499L13.6834 10.4135ZM11.39 9.84759C11.646 9.59306 12.0581 9.52999 12.4097 9.72113L12.8873 8.84259C12.1649 8.44986 11.2684 8.55833 10.6849 9.13846L11.39 9.84759Z" fill="#FBFBF9"/>
</svg>
