<svg xmlns="http://www.w3.org/2000/svg" width="199" height="28" viewBox="0 0 199 28" fill="none">
  <path fill-rule="evenodd" clip-rule="evenodd" d="M197.142 3.23844C198.925 6.03151 198.106 9.74122 195.313 11.5243C168.606 28.5745 138.644 23.9682 109.172 19.4371C107.99 19.2554 106.81 19.0739 105.63 18.8939C74.3518 14.1213 42.404 9.98793 8.96646 26.4133C5.99222 27.8743 2.39674 26.6476 0.935716 23.6734C-0.525304 20.6991 0.701401 17.1037 3.67564 15.6426C40.8243 -2.60571 76.2411 2.27068 107.44 7.03116C108.027 7.12078 108.613 7.21023 109.196 7.29939C140.278 12.0483 166.029 15.9828 188.856 1.40972C191.649 -0.373372 195.359 0.445371 197.142 3.23844Z" fill="currentColor"/>
</svg>