<svg width="59" height="59" viewBox="0 0 59 59" fill="none" xmlns="http://www.w3.org/2000/svg">
<path d="M22.5803 6.76038H36.4199V3.07288H22.5803V6.76038ZM47.8427 14.9908L47.9307 15.2547L51.4287 14.0875L51.3405 13.8236L47.8427 14.9908ZM11.0693 15.2547L11.1574 14.9908L7.65951 13.8236L7.57146 14.0875L11.0693 15.2547ZM26.9361 55.927H32.0639V52.2395H26.9361V55.927ZM45.4793 18.6572H13.5209V22.3447H45.4793V18.6572ZM11.6966 20.768L15.3821 45.9415L19.0307 45.4073L15.3452 20.2338L11.6966 20.768ZM43.6179 45.9415L47.3036 20.768L43.655 20.2338L39.9694 45.4073L43.6179 45.9415ZM32.0639 55.927C34.0426 55.927 35.6991 55.9305 37.0273 55.7631C38.4072 55.589 39.6619 55.208 40.7337 54.2814L38.3226 51.4915C38.0099 51.7619 37.559 51.9792 36.5661 52.1043C35.5218 52.2361 34.1385 52.2395 32.0639 52.2395V55.927ZM39.9694 45.4073C39.6688 47.4598 39.465 48.8281 39.1835 49.8424C38.9158 50.8066 38.6353 51.2213 38.3226 51.4915L40.7337 54.2814C41.8058 53.3551 42.3646 52.1687 42.7365 50.8287C43.0947 49.5386 43.3315 47.8991 43.6179 45.9415L39.9694 45.4073ZM7.57146 14.0875C7.19452 15.2171 6.85648 16.2203 6.68491 17.0511C6.50894 17.9031 6.43445 18.8881 6.88787 19.8606L10.2299 18.3023C10.2694 18.3869 10.1839 18.3409 10.2962 17.7969C10.413 17.2315 10.6627 16.4734 11.0693 15.2547L7.57146 14.0875ZM13.5209 18.6572C12.236 18.6572 11.4379 18.6541 10.8647 18.5858C10.313 18.5202 10.2965 18.4245 10.3643 18.4887L7.82825 21.1657C8.6072 21.9036 9.56512 22.1448 10.429 22.2475C11.2714 22.3478 12.33 22.3447 13.5209 22.3447V18.6572ZM6.88787 19.8606C7.11649 20.3509 7.43551 20.7937 7.82825 21.1657L10.3643 18.4887C10.3082 18.4356 10.2626 18.3723 10.2299 18.3023L6.88787 19.8606ZM47.9307 15.2547C48.3374 16.4734 48.5871 17.2315 48.7039 17.7969C48.8162 18.3409 48.7307 18.387 48.77 18.3023L52.1121 19.8606C52.5657 18.8881 52.4912 17.9031 52.3152 17.0511C52.1436 16.2203 51.8056 15.2171 51.4287 14.0875L47.9307 15.2547ZM45.4793 22.3447C46.6701 22.3447 47.7287 22.3478 48.5711 22.2475C49.435 22.1448 50.3928 21.9036 51.1718 21.1657L48.6358 18.4887C48.7036 18.4245 48.6872 18.5202 48.1353 18.5858C47.5622 18.6541 46.764 18.6572 45.4793 18.6572V22.3447ZM48.77 18.3023C48.7373 18.3723 48.6918 18.4356 48.6358 18.4887L51.1718 21.1657C51.5647 20.7937 51.8835 20.3509 52.1121 19.8606L48.77 18.3023ZM36.4199 6.76038C38.7159 6.76038 40.3016 6.76257 41.5391 6.88757C42.738 7.00867 43.4433 7.23262 44.0077 7.57959L45.939 4.43824C44.7266 3.69292 43.4141 3.37073 41.9098 3.21876C40.4441 3.07069 38.6414 3.07288 36.4199 3.07288V6.76038ZM51.3405 13.8236C50.6374 11.7161 50.0688 10.0053 49.4645 8.66202C48.844 7.28312 48.123 6.14014 47.0322 5.22603L44.6639 8.05226C45.1715 8.47779 45.6071 9.07605 46.1015 10.1749C46.6119 11.3093 47.1158 12.8127 47.8427 14.9908L51.3405 13.8236ZM44.0077 7.57959C44.2376 7.72092 44.4569 7.87892 44.6639 8.05226L47.0322 5.22603C46.6876 4.93711 46.322 4.67379 45.939 4.43824L44.0077 7.57959ZM26.9361 52.2395C24.8615 52.2395 23.4783 52.2361 22.434 52.1043C21.4412 51.9792 20.9902 51.7619 20.6774 51.4915L18.2662 54.2814C19.3382 55.208 20.5929 55.589 21.9727 55.7631C23.301 55.9305 24.9574 55.927 26.9361 55.927V52.2395ZM15.3821 45.9415C15.6687 47.8991 15.9053 49.5386 16.2635 50.8287C16.6355 52.1687 17.1942 53.3551 18.2662 54.2814L20.6774 51.4915C20.3647 51.2213 20.0843 50.8066 19.8166 49.8424C19.535 48.8281 19.3312 47.4598 19.0307 45.4073L15.3821 45.9415ZM22.5803 3.07288C20.3586 3.07288 18.5559 3.07069 17.0903 3.21876C15.586 3.37073 14.2735 3.69292 13.0612 4.43824L14.9924 7.57959C15.5567 7.23262 16.2622 7.00867 17.4609 6.88757C18.6985 6.76257 20.2842 6.76038 22.5803 6.76038V3.07288ZM11.1574 14.9908C11.8842 12.8127 12.3882 11.3093 12.8985 10.1749C13.3929 9.07605 13.8286 8.47779 14.3363 8.05226L11.9678 5.22603C10.8771 6.14014 10.156 7.28312 9.53567 8.662C8.93133 10.0053 8.36277 11.7161 7.65951 13.8236L11.1574 14.9908ZM13.0612 4.43824C12.678 4.67379 12.3125 4.93711 11.9678 5.22603L14.3363 8.05226C14.5432 7.87892 14.7625 7.72092 14.9924 7.57959L13.0612 4.43824Z" fill="#343B2B"/>
<path fill-rule="evenodd" clip-rule="evenodd" d="M15.0574 29.5C15.0574 28.9909 15.4701 28.5781 15.9792 28.5781H43.0209C43.53 28.5781 43.9428 28.9909 43.9428 29.5C43.9428 30.0091 43.53 30.4219 43.0209 30.4219H15.9792C15.4701 30.4219 15.0574 30.0091 15.0574 29.5Z" fill="#343B2B"/>
<path fill-rule="evenodd" clip-rule="evenodd" d="M16.2864 41.7916C16.2864 41.2825 16.6991 40.8698 17.2083 40.8698H41.7916C42.3007 40.8698 42.7135 41.2825 42.7135 41.7916C42.7135 42.3008 42.3007 42.7135 41.7916 42.7135H17.2083C16.6991 42.7135 16.2864 42.3008 16.2864 41.7916Z" fill="#343B2B"/>
</svg>
