<svg width="92" height="111" viewBox="0 0 92 111" fill="none" xmlns="http://www.w3.org/2000/svg">
<path fill-rule="evenodd" clip-rule="evenodd" d="M16.1967 64.2739L11.0529 73.5763C5.97431 82.3727 7.98957 90.6036 16.6956 95.6346C23.1621 99.3714 22.0303 98.7173 29.0608 102.78C35.7903 106.669 44.5284 104.283 48.4542 97.483C49.9227 94.9395 51.298 91.7711 53.1726 88.5243C54.7791 85.7418 56.8421 82.9547 58.6264 79.8644C60.5466 76.5384 62.1979 72.8919 64.1926 69.437C66.2052 65.9511 68.5622 62.655 70.5122 59.2775C70.5122 59.2775 74.6348 51.4744 78.5707 44.513C80.6028 40.919 83.4417 36.9864 85.0816 35.2735C91.04 29.052 89.9679 23.3019 84.3591 20.0608C81.8787 18.6274 79.6207 19.8935 77.2618 18.5304C74.9027 17.1672 75.1179 14.7205 71.0878 12.3916C67.0576 10.0627 63.165 13.3497 59.1349 11.0208C56.7469 9.64082 53.6567 7.0179 48.9565 10.6708C45.0843 13.6807 48.2621 17.0217 40.6436 21.0362C40.2661 21.2355 39.8927 21.4486 39.5225 21.6773C29.388 27.9419 35.1102 33.5033 20.8305 57.0668C19.136 59.4521 17.5857 61.868 16.1967 64.2739ZM37.9373 38.8363C37.6654 39.053 37.2861 39.0678 37.0044 38.8706C36.7228 38.6734 36.6047 38.3117 36.7136 37.9801C36.9044 37.3909 37.0849 36.8255 37.2578 36.2809C38.6224 31.9779 38.8638 29.4982 42.7924 27.0691C47.5488 24.1298 53.5343 24.2448 59.3819 26.1079C59.5061 26.1476 59.6514 26.1995 59.8102 26.2591C60.1391 26.3758 60.3508 26.6976 60.3267 27.0507C60.3027 27.4037 60.0501 27.7004 59.7068 27.7796C52.2535 29.6282 44.4703 33.7266 37.9373 38.8363ZM30.8693 52.0151C35.8822 46.3893 41.69 41.3306 47.9548 37.6415C55.2921 33.3199 63.2856 30.9004 71.2992 31.9809C71.9751 32.0711 72.65 32.1881 73.326 32.3288L73.3264 32.329C74.7552 32.6295 75.9494 33.5971 76.5452 34.9368C77.1408 36.2763 77.0667 37.8298 76.3455 39.1239C72.6281 45.7942 66.4799 56.8257 66.4799 56.8257C65.068 59.2712 63.4374 61.6728 61.8841 64.1375C61.6724 63.6849 61.4491 63.2393 61.2122 62.8043C58.8824 58.5223 55.3048 55.1476 50.0124 53.7406C48.7528 53.4072 47.3105 53.6241 46.9668 54.8933C46.6231 56.1625 47.7356 57.2182 48.9942 57.5534C53.6685 58.7936 56.0432 62.8194 57.7499 66.8079C57.8882 67.1309 58.0874 67.5121 58.2693 67.9016C58.5295 68.4625 58.7536 69.0415 58.7105 69.4913C58.6926 69.5796 58.663 69.6635 58.6214 69.7426C57.2806 72.3438 56.0109 74.9586 54.6 77.4023C53.474 79.3525 52.2407 81.1833 51.0787 82.9658C50.8792 82.4653 50.6662 81.9637 50.4404 81.4617C50.0996 80.7029 49.7295 79.9431 49.329 79.1888C46.2647 73.4044 41.1683 68.363 33.4851 66.3221C32.2265 65.987 30.8541 66.476 30.5104 67.7452C30.1677 69.0127 31.2802 70.0684 32.5388 70.4035C38.8162 72.0701 42.3778 76.8002 44.8811 81.5265C45.6935 83.0579 46.7877 85.213 47.3773 86.767C47.6381 87.4544 47.7997 88.0249 47.795 88.3708C47.7748 88.4646 47.7426 88.5538 47.6986 88.6384C46.4973 91.0037 45.4595 93.2342 44.3693 95.1224C41.753 99.6539 35.9289 101.245 31.4437 98.6528C24.1026 94.4105 26.4198 95.7495 19.0786 91.5072C12.7842 87.8699 11.4662 82.2964 15.1379 75.9369L20.2816 66.6345C23.1451 61.6748 26.7372 56.6522 30.8693 52.0151Z" fill="#343B2B"/>
</svg>
