<svg width="40" height="40" viewBox="0 0 40 40" fill="none" xmlns="http://www.w3.org/2000/svg">
<path d="M3.85884 21.163C3.7756 20.451 3.734 20.095 3.7515 19.8015C3.84332 18.2628 4.97795 16.988 6.49542 16.7182C6.7849 16.6667 7.14334 16.6667 7.8602 16.6667H25.473C26.1898 16.6667 26.5483 16.6667 26.8378 16.7182C28.3553 16.988 29.49 18.2628 29.5817 19.8015C29.5992 20.095 29.5577 20.451 29.4743 21.163L28.8067 26.8763C28.5052 29.4548 27.1273 31.7857 25.0135 33.2928C23.456 34.4032 21.591 35 19.6782 35H13.6551C11.7423 35 9.87717 34.4032 8.3197 33.2928C6.20587 31.7857 4.82802 29.4548 4.52664 26.8763L3.85884 21.163Z" stroke="#FBFBF9" stroke-width="3"/>
<path d="M28.3333 28.3333H31.6666C34.4281 28.3333 36.6666 26.0948 36.6666 23.3333C36.6666 20.5718 34.4281 18.3333 31.6666 18.3333H29.1666" stroke="#FBFBF9" stroke-width="3"/>
<path d="M16.667 3.33334C15.7464 4.25381 15.7464 5.74621 16.667 6.66668C17.5873 7.58714 17.5873 9.07954 16.667 10" stroke="#FBFBF9" stroke-width="3" stroke-linecap="round" stroke-linejoin="round"/>
<path d="M8.33361 12.5L8.52715 12.3065C9.37243 11.4612 9.46753 10.123 8.75028 9.16668C8.03303 8.21034 8.12815 6.87216 8.97343 6.02688L9.16695 5.83334" stroke="#FBFBF9" stroke-width="3" stroke-linecap="round" stroke-linejoin="round"/>
<path d="M24.167 12.5L24.3605 12.3065C25.2058 11.4612 25.3008 10.123 24.5836 9.16668C23.8663 8.21034 23.9615 6.87216 24.8068 6.02688L25.0003 5.83334" stroke="#FBFBF9" stroke-width="3" stroke-linecap="round" stroke-linejoin="round"/>
</svg>
