<svg width="40" height="40" viewBox="0 0 40 40" fill="none" xmlns="http://www.w3.org/2000/svg">
<path d="M36.015 22.6027L36.397 18.5438C36.697 15.3562 36.847 13.7623 36.3017 13.1035C36.0067 12.7471 35.6055 12.5287 35.1767 12.491C34.3838 12.4214 33.3882 13.5548 31.3968 15.8218C30.367 16.9942 29.8522 17.5803 29.2777 17.6712C28.9595 17.7213 28.6352 17.6697 28.3412 17.5218C27.8108 17.2548 27.4572 16.5302 26.7498 15.0809L23.0218 7.44143C21.6853 4.70271 21.017 3.33334 20 3.33334C18.983 3.33334 18.3147 4.70271 16.9782 7.44144L13.2501 15.0809C12.5428 16.5302 12.1892 17.2548 11.6588 17.5218C11.3649 17.6697 11.0406 17.7213 10.7223 17.6712C10.1479 17.5803 9.63296 16.9942 8.60312 15.8218C6.61181 13.5548 5.61614 12.4214 4.82332 12.491C4.39444 12.5287 3.99331 12.7471 3.69832 13.1035C3.15301 13.7623 3.30301 15.3562 3.60302 18.5438L3.98501 22.6027C4.61442 29.2903 4.92914 32.6342 6.90016 34.6503C8.87119 36.6667 11.8253 36.6667 17.7335 36.6667H22.2665C28.1747 36.6667 31.1288 36.6667 33.0998 34.6503C35.0708 32.6342 35.3855 29.2903 36.015 22.6027Z" stroke="#FBFBF9" stroke-width="3"/>
<path d="M15 30H25" stroke="#FBFBF9" stroke-width="3" stroke-linecap="round"/>
</svg>
