<svg width="40" height="40" viewBox="0 0 40 40" fill="none" xmlns="http://www.w3.org/2000/svg">
<path d="M36.6666 26.6667C36.6666 23.9052 34.4281 21.6667 31.6666 21.6667C28.9052 21.6667 26.6666 23.9052 26.6666 26.6667C26.6666 29.4281 28.9052 31.6667 31.6666 31.6667C34.4281 31.6667 36.6666 29.4281 36.6666 26.6667Z" stroke="#FBFBF9" stroke-width="3"/>
<path d="M18.3334 26.6667V24.1667C18.3334 21.024 18.3334 19.4527 17.357 18.4763C16.3808 17.5 14.8094 17.5 11.6667 17.5H10.6667C10.0476 17.5 9.73811 17.5 9.47697 17.5205C6.20781 17.7778 3.61121 20.3745 3.35392 23.6437C3.33337 23.9047 3.33337 24.2143 3.33337 24.8333C3.33337 24.9882 3.33337 25.0655 3.33851 25.1308C3.40284 25.948 4.05197 26.5972 4.86927 26.6615C4.93456 26.6667 5.01194 26.6667 5.16671 26.6667H18.3334ZM18.3334 26.6667H26.6667" stroke="#FBFBF9" stroke-width="3" stroke-linecap="round"/>
<path d="M15.8334 26.6667C15.8334 29.4282 13.5948 31.6667 10.8334 31.6667C8.07196 31.6667 5.83337 29.4282 5.83337 26.6667" stroke="#FBFBF9" stroke-width="3" stroke-linecap="round"/>
<path d="M20 8.33334H20.8798C22.8845 8.33334 23.8868 8.33334 24.6923 8.83118C25.4978 9.32901 25.9462 10.2255 26.8427 12.0186L31.6667 21.6667" stroke="#FBFBF9" stroke-width="3" stroke-linecap="round"/>
<path d="M30.2377 18.3333L31.3738 17.4963C31.8118 17.1735 32.031 17.0122 32.1833 16.8018C32.287 16.6586 32.3672 16.4999 32.421 16.3315C32.5 16.0841 32.5 15.812 32.5 15.2679C32.5 14.2388 32.5 13.7243 32.2807 13.3401C32.1328 13.0815 31.9185 12.8671 31.66 12.7194C31.2757 12.5 30.7612 12.5 29.7322 12.5H27.5" stroke="#FBFBF9" stroke-width="3" stroke-linecap="round"/>
<path d="M31.6666 31.6667C34.4281 31.6667 36.6666 29.4281 36.6666 26.6667C36.6666 23.9052 34.4281 21.6667 31.6666 21.6667C28.9052 21.6667 26.6666 23.9052 26.6666 26.6667C26.6666 29.4281 28.9052 31.6667 31.6666 31.6667Z" stroke="#FBFBF9" stroke-width="3"/>
</svg>
